<?xml version="1.0" encoding="utf-8"?>
<!-- Generator: Adobe Illustrator 22.1.0, SVG Export Plug-In . SVG Version: 6.00 Build 0)  -->
<svg version="1.1" id="Capa_1" xmlns="http://www.w3.org/2000/svg" xmlns:xlink="http://www.w3.org/1999/xlink" x="0px" y="0px"
	 viewBox="0 0 504.2 504.2" style="enable-background:new 0 0 504.2 504.2;" xml:space="preserve">
<style type="text/css">
	.st0{fill:#8C8C8C;}
	.st1{fill:#0D0D0D;}
	.st2{fill:#BFBFBF;}
	.st3{fill:#595959;}
	.st4{fill:#F2F2F2;}
</style>
<circle class="st0" cx="252.1" cy="252.1" r="252.1"/>
<circle class="st1" cx="304.9" cy="143" r="92.9"/>
<path class="st2" d="M304.9,243.9C249.7,243.9,204,199,204,143S249.7,43,304.9,43s100.8,44.9,100.8,100.8S360.8,243.9,304.9,243.9z
	 M304.9,58c-46.5,0-85.1,38.6-85.1,85.1s37.8,85.1,85.1,85.1c46.5,0,85.1-37.8,85.1-85.1C389.9,96.6,352.1,58,304.9,58z"/>
<path class="st2" d="M371,143.8c0-36.2-29.1-66.2-66.2-66.2c-18.1,0-34.7,6.3-46.5,18.1l46.5,47.2L371,143.8z"/>
<path class="st3" d="M304.9,209.2c36.2,0,66.2-29.1,66.2-66.2h-66.2V209.2z"/>
<path class="st0" d="M258.4,95.8c-12,12-19.7,28.8-19.7,47.2h66.6L258.4,95.8z"/>
<path class="st4" d="M304.9,209.2V143h-66.2C239.5,179.3,268.6,209.2,304.9,209.2z"/>
<rect x="297" y="264.7" class="st0" width="52.8" height="228.4"/>
<path class="st2" d="M349.8,501H297c-3.9,0-7.9-3.2-7.9-7.9V264.7c0-3.9,3.2-7.9,7.9-7.9h52.8c3.9,0,7.9,3.2,7.9,7.9v228.4
	C357.6,497.1,354.5,501,349.8,501z M304.9,485.3h37.8V271.8h-37.8V485.3z"/>
<rect x="200.9" y="303.3" class="st3" width="52.8" height="189.8"/>
<path class="st2" d="M253.7,501h-52.8c-3.9,0-7.9-3.2-7.9-7.9V303.3c0-3.9,3.2-7.9,7.9-7.9h52.8c3.9,0,7.9,3.2,7.9,7.9v189.8
	C261.5,497.1,258.4,501,253.7,501z M208,485.3h37.8V311.2H208L208,485.3L208,485.3z"/>
<rect x="104" y="373.4" class="st4" width="52.8" height="118.9"/>
<path class="st2" d="M157.6,501h-52.8c-3.9,0-7.9-3.2-7.9-7.9V373.4c0-3.9,3.2-7.9,7.9-7.9h52.8c3.9,0,7.9,3.2,7.9,7.9v118.9
	C165.4,497.1,161.5,501,157.6,501z M111.9,485.3h37.8v-104h-37.8C111.9,381.3,111.9,485.3,111.9,485.3z"/>
<rect x="7.9" y="326.1" class="st1" width="52.8" height="167"/>
<path class="st2" d="M60.7,501H7.9C4,501,0,497.9,0,493.1v-167c0-3.9,3.2-7.9,7.9-7.9h52.8c3.9,0,7.9,3.2,7.9,7.9v167
	C68.5,497.1,65.4,501,60.7,501z M15.8,485.3h37.8v-152H15.8V485.3z"/>
</svg>
