<?xml version="1.0" encoding="iso-8859-1"?>
<!-- Generator: Adobe Illustrator 19.0.0, SVG Export Plug-In . SVG Version: 6.00 Build 0)  -->
<svg version="1.1" id="Capa_1" xmlns="http://www.w3.org/2000/svg" xmlns:xlink="http://www.w3.org/1999/xlink" x="0px" y="0px"
	 viewBox="0 0 504.517 504.517" style="enable-background:new 0 0 504.517 504.517;" xml:space="preserve">
<circle style="fill:#FCBD5E;" cx="252.455" cy="252.258" r="252.062"/>
<g>
	
		<rect x="116.796" y="116.911" transform="matrix(-0.3492 0.9371 -0.9371 -0.3492 285.1406 51.536)" style="fill:#183651;" width="15.755" height="15.755"/>
	
		<rect x="107.612" y="165.603" transform="matrix(-0.0075 1 -1 -0.0075 289.8369 59.3038)" style="fill:#183651;" width="15.754" height="15.754"/>
	
		<rect x="116.23" y="215.237" transform="matrix(-0.9422 0.3349 -0.3349 -0.9422 315.7709 391.7765)" style="fill:#183651;" width="15.753" height="15.753"/>
	
		<rect x="386.391" y="119.187" transform="matrix(-0.9422 0.3349 -0.3349 -0.9422 808.3199 114.7415)" style="fill:#183651;" width="15.753" height="15.753"/>
	
		<rect x="140.764" y="258.621" transform="matrix(-0.7709 0.637 -0.637 -0.7709 432.9802 377.254)" style="fill:#183651;" width="15.754" height="15.754"/>
	
		<rect x="362.002" y="75.784" transform="matrix(-0.7709 0.6369 -0.6369 -0.7709 708.3134 -87.4279)" style="fill:#183651;" width="15.753" height="15.753"/>
	
		<rect x="324.19" y="43.374" transform="matrix(-0.5065 0.8623 -0.8623 -0.5065 544.4427 -209.1181)" style="fill:#183651;" width="15.755" height="15.755"/>
	
		<rect x="277.571" y="25.713" transform="matrix(-0.181 0.9835 -0.9835 -0.181 370.1483 -241.0637)" style="fill:#183651;" width="15.754" height="15.754"/>
	
		<rect x="227.214" y="25.441" transform="matrix(-0.9861 0.1661 -0.1661 -0.9861 472.4499 27.1245)" style="fill:#183651;" width="15.754" height="15.754"/>
	
		<rect x="180.565" y="41.899" transform="matrix(-0.8699 0.4932 -0.4932 -0.8699 376.9202 0.1361)" style="fill:#183651;" width="15.754" height="15.754"/>
	
		<rect x="142.342" y="74.195" transform="matrix(-0.6486 0.7611 -0.7611 -0.6486 310.1185 20.9713)" style="fill:#183651;" width="15.753" height="15.753"/>
	<polygon style="fill:#183651;" points="504.517,504.32 0.394,504.32 0.394,0.197 16.148,0.197 16.148,488.566 504.517,488.566 	"/>
	<rect x="8.271" y="305.034" style="fill:#183651;" width="27.569" height="15.754"/>
	<rect x="8.271" y="174.277" style="fill:#183651;" width="27.569" height="15.754"/>
	<rect x="8.271" y="44.308" style="fill:#183651;" width="27.569" height="15.754"/>
	<rect x="8.271" y="369.625" style="fill:#183651;" width="27.569" height="15.754"/>
	<rect x="8.271" y="239.655" style="fill:#183651;" width="27.569" height="15.754"/>
	<rect x="8.271" y="109.686" style="fill:#183651;" width="27.569" height="15.754"/>
</g>
<polygon style="fill:#2AA0DA;" points="8.271,496.443 94.129,338.905 228.037,310.548 298.929,176.64 409.206,245.957 
	496.64,152.222 496.64,496.443 "/>
<path style="fill:#183651;" d="M496.64,504.32H8.271c-3.151,0-5.514-1.575-7.089-3.938c-1.575-2.363-1.575-5.514,0-7.877
	L87.04,334.966c0.788-2.363,3.151-3.151,5.514-3.938l129.969-27.569l68.529-130.757c0.788-1.575,3.151-3.151,4.726-3.938
	c2.363-0.788,4.726,0,6.302,0.788l105.551,65.378l82.708-88.222c2.363-2.363,5.514-3.151,8.665-1.575
	c3.151,1.575,4.726,3.938,4.726,7.089v344.222C504.517,501.169,501.366,504.32,496.64,504.32z M21.662,488.566h467.102V171.914
	l-74.043,78.769c-2.363,2.363-7.089,3.151-10.24,1.575l-103.188-64.591l-66.166,126.031c-0.788,2.363-3.151,3.938-5.514,3.938
	L99.643,345.206L21.662,488.566z"/>
<g>
	<polygon style="fill:#FFFFFF;" points="87.828,449.182 125.637,380.652 259.545,352.295 317.046,243.594 417.083,305.822 
		449.378,271.951 449.378,449.182 	"/>
	<circle style="fill:#FFFFFF;" cx="409.206" cy="245.957" r="22.843"/>
</g>
<path style="fill:#183651;" d="M409.206,275.889c-16.542,0-30.72-13.391-30.72-30.72s13.391-30.72,30.72-30.72
	c16.542,0,30.72,13.391,30.72,30.72S425.748,275.889,409.206,275.889z M409.206,230.991c-7.877,0-14.966,6.302-14.966,14.966
	c0,8.665,6.302,14.966,14.966,14.966c7.877,0,14.966-6.302,14.966-14.966C424.172,237.292,417.083,230.991,409.206,230.991z"/>
<circle style="fill:#FFFFFF;" cx="297.354" cy="177.428" r="22.843"/>
<path style="fill:#183651;" d="M297.354,207.36c-16.542,0-30.72-13.391-30.72-30.72c0-16.542,13.391-30.72,30.72-30.72
	c16.542,0,30.72,13.391,30.72,30.72C328.074,193.969,314.683,207.36,297.354,207.36z M297.354,162.462
	c-7.877,0-14.966,6.302-14.966,14.966c0,7.877,6.302,14.966,14.966,14.966c7.877,0,14.966-6.302,14.966-14.966
	C312.32,168.763,306.018,162.462,297.354,162.462z"/>
<circle style="fill:#FFFFFF;" cx="228.825" cy="305.822" r="22.843"/>
<path style="fill:#183651;" d="M228.825,335.754c-16.542,0-30.72-13.391-30.72-30.72c0-17.329,13.391-30.72,30.72-30.72
	s30.72,13.391,30.72,30.72C259.545,322.363,245.366,335.754,228.825,335.754z M228.825,290.855c-7.877,0-14.966,6.302-14.966,14.966
	s6.302,14.966,14.966,14.966c7.877,0,14.966-6.302,14.966-14.966S236.702,290.855,228.825,290.855z"/>
<circle style="fill:#FFFFFF;" cx="95.705" cy="342.843" r="22.843"/>
<g>
	<path style="fill:#183651;" d="M95.705,373.563c-16.542,0-30.72-13.391-30.72-30.72c0-16.542,13.391-30.72,30.72-30.72
		c16.542,0,30.72,13.391,30.72,30.72S112.246,373.563,95.705,373.563z M95.705,327.877c-7.877,0-14.966,6.302-14.966,14.966
		c0,7.877,6.302,14.966,14.966,14.966c7.877,0,14.966-6.302,14.966-14.966C110.671,334.966,103.582,327.877,95.705,327.877z"/>
	<rect x="267.422" y="401.132" style="fill:#183651;" width="15.754" height="15.754"/>
	<rect x="322.56" y="401.132" style="fill:#183651;" width="15.754" height="15.754"/>
	<rect x="378.486" y="401.132" style="fill:#183651;" width="15.754" height="15.754"/>
</g>
<g>
</g>
<g>
</g>
<g>
</g>
<g>
</g>
<g>
</g>
<g>
</g>
<g>
</g>
<g>
</g>
<g>
</g>
<g>
</g>
<g>
</g>
<g>
</g>
<g>
</g>
<g>
</g>
<g>
</g>
</svg>
