<?xml version="1.0" encoding="utf-8"?>
<!-- Generator: Adobe Illustrator 22.1.0, SVG Export Plug-In . SVG Version: 6.00 Build 0)  -->
<svg version="1.1" id="Warstwa_1" xmlns="http://www.w3.org/2000/svg" xmlns:xlink="http://www.w3.org/1999/xlink" x="0px" y="0px"
	 viewBox="0 0 512 512" style="enable-background:new 0 0 512 512;" xml:space="preserve">
<style type="text/css">
	.st0{fill:#F2F2F2;}
	.st1{fill:#8C8C8C;}
	.st2{fill:#0D0D0D;}
</style>
<path class="st0" d="M235.2,0.8C112.3,10.5,12.3,109.2,1.1,231.9c-4.7,51.8,6,100.7,28,142.7c8,15.3,9,33.3,3.1,49.5L0,512l93.1-31
	c15.4-5.1,32.3-4.2,46.8,3.2c42.1,21.5,90.9,31.7,142.5,26.5c121.8-12.3,219-111.8,228.7-233.8C523.7,119.1,393-11.7,235.2,0.8z"/>
<circle class="st1" cx="256" cy="256" r="211.9"/>
<circle class="st2" cx="256" cy="132.4" r="26.5"/>
<path class="st2" d="M256,406.1L256,406.1c-14.6,0-26.5-11.9-26.5-26.5V229.5c0-14.6,11.9-26.5,26.5-26.5l0,0
	c14.6,0,26.5,11.9,26.5,26.5v150.1C282.5,394.2,270.6,406.1,256,406.1z"/>
</svg>
